Coordinates
version=1
nRows=11
nColumns=32
inDegrees=yes

Units are S.I. units (second, meters, Newtons, ...)
If the header above contains a line with 'inDegrees', this indicates whether rotational values are in degrees (yes) or radians (no).

endheader
time	pelvis_tilt	pelvis_list	pelvis_rotation	pelvis_tx	pelvis_ty	pelvis_tz	hip_flexion_r	hip_adduction_r	hip_rotation_r	knee_angle_r	knee_adduction_r	med_cond_adduction_r	lat_cond_adduction_r	patella_r_constrained_knee_angle	hip_flexion_l	hip_adduction_l	hip_rotation_l	knee_angle_l	knee_adduction_l	med_cond_adduction_l	lat_cond_adduction_l	patella_l_constrained_knee_angle	lumbar_extension	lumbar_bending	lumbar_rotation	ankle_angle_r	subtalar_angle_r	mtp_angle_r	ankle_angle_l	subtalar_angle_l	mtp_angle_l
      0.50500000	    -11.16323876	     -3.91852397	    -10.37571601	     -1.26910622	      0.83796637	     -0.20796196	     -0.95786990	      5.74116231	      5.75635008	    -18.88800629	      3.41597414	     -0.00000000	     -0.00000000	     -0.32965790	     37.93442570	     -6.65538279	     -6.05515708	     -3.84870810	     -0.87274802	     -0.00000000	     -0.00000000	     -0.06717263	     -9.28861283	      7.51500308	     12.27314440	     12.74910510	     11.33379322	      0.00000000	     -0.91584405	      1.81279373	      0.00000000
      0.51000000	    -11.07661001	     -3.72699828	    -10.24492448	     -1.26112796	      0.83769011	     -0.20816706	     -1.14239916	      5.33574388	      5.83852010	    -19.61812454	      3.59001695	      0.00000000	      0.00000000	     -0.34240087	     37.95584602	     -6.20429611	     -5.39439889	     -4.75144708	     -0.81006072	      0.00000000	      0.00000000	     -0.08292840	     -9.18071482	      7.15685017	     12.13447493	     12.03200540	     11.23282867	      0.00000000	     -1.90546894	      1.62219581	     -0.00000000
      0.51500000	    -10.97460440	     -3.53575341	    -10.10606870	     -1.25318543	      0.83749624	     -0.20839721	     -1.26964022	      4.92740550	      5.90579419	    -20.46030822	      3.77475096	     -0.00000000	     -0.00000000	     -0.35709974	     38.02220731	     -5.75916285	     -4.84963491	     -5.74495445	     -0.77911300	     -0.00000000	     -0.00000000	     -0.10026837	     -9.09876521	      6.81306892	     12.05987190	     11.24333754	     11.19192577	     -0.00000000	     -2.99804470	      1.71182714	      0.00000000
      0.52000000	    -10.88389312	     -3.33973953	     -9.92518642	     -1.24525546	      0.83736666	     -0.20865515	     -1.32259985	      4.52608689	      5.93026687	    -21.38462578	      3.94281731	      0.00000000	      0.00000000	     -0.37323213	     38.11913343	     -5.30063886	     -4.24092374	     -6.73419382	     -0.74899945	     -0.00000000	     -0.00000000	     -0.11753385	     -9.02247692	      6.44015307	     12.00263594	     10.20105842	     11.16031277	      0.00000000	     -4.03268936	      2.17820541	     -0.00000000
      0.52500000	    -10.79705872	     -3.13414276	     -9.70802039	     -1.23737079	      0.83730012	     -0.20897329	     -1.28594719	      4.11533945	      5.88606534	    -22.42885789	      4.11623383	     -0.00000000	     -0.00000000	     -0.39145742	     38.26816794	     -4.83054870	     -3.66088848	     -7.78390298	     -0.72154631	      0.00000000	      0.00000000	     -0.13585474	     -8.94769552	      6.05372826	     11.90025457	      9.12479467	     11.35052908	     -0.00000000	     -5.04898951	      2.84968430	      0.00000000
      0.53000000	    -10.71347463	     -2.91089297	     -9.45898407	     -1.22953281	      0.83731488	     -0.20931615	     -1.15765422	      3.69461916	      5.85776974	    -23.58488424	      4.31225381	      0.00000000	      0.00000000	     -0.41163388	     38.43751062	     -4.34902628	     -3.06787149	     -8.83215292	     -0.66783107	     -0.00000000	     -0.00000000	     -0.15415015	     -8.85685460	      5.65825378	     11.69256022	      7.85196759	     11.17664116	      0.00000000	     -6.09280390	      3.56041466	      0.00000000
      0.53500000	    -10.68032104	     -2.69000690	     -9.19943002	     -1.22174801	      0.83735356	     -0.20967004	     -0.90686647	      3.28696094	      5.88566613	    -24.81692617	      4.55088796	      0.00000000	      0.00000000	     -0.43313707	     38.68737265	     -3.88861559	     -2.45563261	     -9.91014025	     -0.60140905	      0.00000000	      0.00000000	     -0.17296458	     -8.72972889	      5.28470591	     11.52423717	      6.42701022	     11.15915515	     -0.00000000	     -7.20446795	      4.18365384	      0.00000000
      0.54000000	    -10.59097301	     -2.42288316	     -8.89904469	     -1.21400723	      0.83749830	     -0.21008686	     -0.61343124	      2.80016775	      5.79844584	    -26.15612904	      4.79737593	      0.00000000	      0.00000000	     -0.45651057	     38.88702850	     -3.36762514	     -1.84514824	    -10.99964368	     -0.51361021	      0.00000000	      0.00000000	     -0.19198000	     -8.66333955	      4.81469801	     11.38896702	      4.73388812	     11.18476125	      0.00000000	     -8.09751308	      4.85627379	     -0.00000000
      0.54500000	    -10.56239212	     -2.20063787	     -8.59208818	     -1.20637685	      0.83768187	     -0.21049071	     -0.18535837	      2.40967705	      5.86018858	    -27.56029580	      5.06503851	      0.00000000	      0.00000000	     -0.48101790	     39.15310793	     -2.91391806	     -1.12343470	    -12.11175270	     -0.36934870	      0.00000000	      0.00000000	     -0.21138996	     -8.56540661	      4.43853158	     11.22164067	      2.82085190	     10.80756298	     -0.00000000	     -8.83335309	      5.15797859	      0.00000000
      0.55000000	    -10.51604329	     -1.95657290	     -8.26322650	     -1.19875534	      0.83794392	     -0.21087250	      0.28269037	      1.97341875	      5.97324126	    -28.99015568	      5.42709766	      0.00000000	      0.00000000	     -0.50597367	     39.38804909	     -2.45884201	     -0.39960778	    -13.22269591	     -0.14952898	      0.00000000	      0.00000000	     -0.23077958	     -8.47618393	      3.97073102	     10.99912194	      0.59693895	     10.26177642	     -0.00000000	     -9.58872999	      5.35024592	      0.00000000
      0.55500000	    -10.45421824	     -1.66044904	     -7.94165264	     -1.19122587	      0.83821990	     -0.21129797	      0.84472502	      1.47146624	      6.07213891	    -30.54899229	      5.79956612	     -0.00000000	     -0.00000000	     -0.53318050	     39.59350956	     -1.93027614	      0.35235477	    -14.34458310	      0.05441842	     -0.00000000	     -0.00000000	     -0.25036020	     -8.44540323	      3.49499417	     10.95480863	     -1.54097255	      9.79731783	      0.00000000	     -9.96101190	      5.46033878	     -0.00000000
